<?xml version="1.0" standalone="no"?>
<!DOCTYPE svg PUBLIC "-//W3C//DTD SVG 20010904//EN"
 "http://www.w3.org/TR/2001/REC-SVG-20010904/DTD/svg10.dtd">
<svg version="1.0" xmlns="http://www.w3.org/2000/svg"
 width="300.000000pt" height="100.000000pt" viewBox="0 0 300.000000 100.000000"
 preserveAspectRatio="xMidYMid meet">
<metadata>
Created by potrace 1.10, written by Peter Selinger 2001-2011
</metadata>
<g transform="translate(0.000000,100.000000) scale(0.100000,-0.100000)"
fill="#000000" stroke="none">
<path d="M441 958 c0 -24 5 -52 10 -63 6 -14 7 -6 3 25 -5 44 -4 46 28 62 l33
17 -37 0 -38 1 1 -42z"/>
<path d="M510 940 c-31 -62 -34 -85 -3 -27 25 46 43 87 38 87 -3 0 -18 -27
-35 -60z"/>
<path d="M584 955 c-14 -25 -28 -45 -31 -45 -2 0 -2 15 1 33 5 28 5 29 -4 8
-6 -13 -8 -33 -4 -44 3 -11 2 -17 -3 -14 -5 4 -10 0 -10 -8 0 -22 4 -19 34 28
38 57 52 67 93 66 67 -3 101 1 95 11 -3 6 -37 10 -75 10 l-69 0 -27 -45z"/>
<path d="M907 991 c-14 -5 -6 -10 32 -22 50 -15 51 -15 66 8 14 21 14 23 -4
23 -11 0 -22 -6 -25 -12 -5 -10 -7 -10 -12 0 -6 13 -29 15 -57 3z"/>
<path d="M1140 985 c-6 -8 -20 -30 -29 -49 -15 -29 -16 -36 -4 -40 8 -3 11 -1
8 4 -4 6 5 31 20 55 26 45 28 58 5 30z"/>
<path d="M1210 992 c0 -4 -16 -31 -34 -60 -22 -32 -28 -48 -18 -43 23 14 112
96 112 104 0 4 -13 7 -30 7 -16 0 -30 -3 -30 -8z m30 -17 c0 -8 -9 -19 -20
-25 -23 -12 -25 -8 -8 20 15 24 28 26 28 5z"/>
<path d="M1313 979 l22 -18 -33 -7 c-18 -4 -35 -11 -38 -15 -8 -14 12 -11 50
7 23 12 32 22 28 32 -4 12 2 14 36 9 24 -3 42 -1 42 4 0 5 -29 9 -64 8 -64 -2
-64 -2 -43 -20z"/>
<path d="M1710 987 c0 -22 12 -28 28 -14 11 8 14 8 9 0 -4 -6 -3 -14 3 -18 5
-3 10 -1 10 6 0 20 23 -7 27 -31 2 -12 -3 -20 -12 -20 -8 0 -14 4 -12 9 1 5
-2 9 -7 9 -5 0 -13 6 -17 14 -5 7 -9 8 -9 2 0 -6 8 -19 19 -28 15 -14 29 -16
87 -9 63 7 66 8 29 13 -33 4 -43 11 -55 37 -12 26 -20 32 -46 31 -17 -1 -36 2
-42 6 -7 4 -12 1 -12 -7z"/>
<path d="M1947 986 c-8 -19 20 -29 44 -16 22 12 26 25 4 17 -8 -4 -17 -2 -20
3 -9 14 -22 12 -28 -4z"/>
<path d="M2533 991 c1 -4 -18 -24 -41 -45 -24 -20 -39 -36 -33 -36 6 0 11 -7
11 -15 0 -8 -4 -15 -10 -15 -5 0 -10 -8 -10 -17 0 -13 7 -10 31 13 l30 29 -23
6 c-23 6 -22 6 6 18 16 6 42 23 58 36 21 18 41 25 71 25 46 0 61 -7 70 -30 3
-8 5 -3 4 13 l-1 27 -83 0 c-46 0 -82 -4 -80 -9z"/>
<path d="M770 963 c-29 -24 -31 -30 -26 -67 4 -22 12 -47 19 -55 10 -12 8 -13
-13 -7 -72 20 -124 23 -142 8 -12 -9 -21 -9 -46 4 -33 16 -114 25 -106 12 3
-5 1 -8 -4 -8 -14 0 -32 -48 -32 -83 0 -18 12 -50 25 -72 19 -31 25 -54 25
-100 0 -54 3 -61 25 -72 15 -7 27 -7 31 -2 8 14 -4 41 -15 35 -5 -3 -11 0 -14
8 -4 10 7 20 34 30 40 16 49 30 25 39 -8 3 -16 -2 -19 -14 -3 -10 -9 -19 -14
-19 -12 0 -35 49 -28 59 2 5 -7 19 -21 32 -13 12 -22 29 -20 36 3 7 1 13 -4
13 -6 0 -10 16 -10 35 0 57 65 75 113 31 15 -14 29 -20 33 -15 3 5 13 7 23 4
11 -3 26 4 41 20 13 14 30 25 39 25 10 0 4 -11 -17 -33 -18 -18 -32 -43 -32
-55 0 -12 -4 -22 -10 -22 -5 0 -12 -11 -16 -25 -3 -14 -11 -22 -17 -18 -6 3
-7 1 -3 -6 4 -6 11 -9 16 -6 4 3 10 -2 14 -10 8 -22 19 -18 32 10 11 23 10 24
-8 14 -11 -6 -22 -8 -25 -5 -3 3 6 11 20 17 20 9 30 9 40 0 11 -9 17 -7 28 6
12 15 12 16 -3 10 -12 -4 -15 -2 -11 9 3 8 -1 14 -11 14 -23 0 -21 53 3 74 17
16 22 16 48 3 15 -9 36 -25 45 -36 10 -12 25 -21 35 -21 9 0 24 -7 34 -16 16
-14 18 -14 24 5 6 21 38 36 54 27 5 -3 14 1 21 9 9 10 9 15 1 15 -6 0 -11 -5
-11 -11 0 -8 -4 -8 -14 0 -15 13 -61 0 -67 -18 -7 -19 -50 1 -64 30 -8 15 -15
45 -15 67 0 21 -6 44 -12 51 -11 11 -10 14 0 18 6 3 10 8 7 13 -5 8 38 25 85
33 16 3 9 5 -17 6 -32 1 -49 -5 -73 -26z"/>
<path d="M2646 940 c-13 -28 -13 -30 4 -30 13 0 17 5 14 15 -4 8 -1 22 6 30 8
9 8 15 2 15 -6 0 -17 -13 -26 -30z"/>
<path d="M840 945 c-8 -9 -9 -15 -2 -15 6 0 14 5 17 10 3 6 25 8 48 5 31 -4
37 -3 22 4 -31 15 -71 13 -85 -4z"/>
<path d="M2033 923 c20 -16 61 -48 92 -72 44 -34 58 -41 69 -32 21 17 9 53
-13 41 -19 -10 -72 17 -102 51 -9 11 -24 19 -33 19 -9 0 -16 5 -16 10 0 6 -7
10 -16 10 -11 0 -4 -10 19 -27z"/>
<path d="M2291 926 c-5 -13 -16 -26 -24 -29 -8 -3 -17 -14 -19 -25 -5 -18 -1
-20 52 -19 36 1 56 6 53 12 -2 5 2 2 10 -8 9 -10 34 -21 56 -24 23 -3 41 -9
41 -12 0 -7 -49 -38 -62 -40 -5 -1 -8 -3 -8 -6 0 -3 0 -9 0 -15 0 -5 6 -10 14
-10 8 0 17 -11 20 -25 4 -14 13 -25 22 -25 14 0 14 2 0 16 -20 20 -20 28 0 20
13 -5 15 -2 11 14 -4 14 0 20 11 20 15 0 15 2 2 10 -13 8 -12 10 3 10 19 0 23
-26 5 -33 -10 -4 -10 -6 -1 -6 7 -1 18 11 25 26 7 14 19 29 27 31 9 3 11 0 5
-9 -6 -12 -5 -12 8 -1 10 8 14 20 11 30 -6 15 -4 15 9 4 14 -11 18 -10 29 9
11 21 13 21 24 6 7 -9 16 -17 20 -17 4 0 2 7 -5 15 -6 8 -9 19 -5 25 3 5 3 20
-1 33 -7 20 -10 17 -31 -28 -13 -27 -20 -39 -17 -26 4 16 3 21 -5 17 -6 -4
-11 -1 -11 6 -1 7 -7 -1 -14 -17 -7 -17 -21 -37 -31 -45 -17 -14 -18 -13 -12
12 8 31 -5 43 -30 30 -22 -13 -73 4 -95 32 -10 11 -18 16 -18 10 0 -6 -6 -11
-12 -12 -7 0 -23 -4 -36 -8 -21 -6 -22 -4 -16 22 4 16 11 35 17 42 6 8 6 12
-2 12 -6 0 -16 -11 -20 -24z"/>
<path d="M2973 919 c-3 -17 -12 -33 -20 -36 -8 -3 -12 -12 -9 -20 5 -12 0 -13
-25 -8 -25 6 -31 3 -36 -13 -3 -14 -11 -18 -25 -14 -13 3 -19 1 -15 -5 4 -6
16 -13 27 -16 15 -4 22 1 26 19 5 19 10 22 24 14 28 -15 66 27 68 73 2 45 -6
48 -15 6z"/>
<path d="M2675 920 c3 -11 2 -20 -3 -20 -5 0 -12 -9 -15 -21 -3 -12 -3 -18 0
-15 4 3 12 1 20 -6 17 -14 26 -5 31 30 2 14 7 31 12 37 6 7 -1 12 -21 13 -26
2 -30 0 -24 -18z"/>
<path d="M915 921 c3 -6 -3 -15 -12 -21 -17 -11 -17 -11 1 -5 40 12 82 15 111
6 30 -9 30 -9 -10 -10 -56 -1 -104 -17 -132 -43 -28 -27 -30 -43 -3 -28 11 6
26 8 33 4 7 -4 8 -3 4 2 -4 4 9 14 30 21 l38 13 -35 -5 c-21 -3 -31 -2 -25 4
6 5 37 12 70 15 38 3 47 2 25 -3 -31 -6 -27 -8 35 -12 39 -3 72 -4 75 -2 9 8
-45 42 -89 58 -49 17 -126 20 -116 6z"/>
<path d="M316 905 c-22 -16 -40 -20 -32 -7 9 15 -97 0 -112 -15 -8 -8 -21 -12
-28 -9 -8 3 -14 1 -14 -5 0 -6 -7 -9 -15 -5 -18 7 -20 -19 -3 -31 24 -14 40
-12 33 5 -5 14 -4 15 6 5 19 -19 34 -16 18 4 -12 15 -12 16 4 10 10 -4 21 -7
24 -7 3 0 -2 -12 -12 -26 -9 -14 -14 -28 -11 -31 3 -3 9 2 12 11 5 14 9 15 16
4 6 -9 7 -6 3 10 -4 13 -2 22 5 22 6 0 8 4 5 10 -3 5 5 15 19 21 20 10 30 9
51 -5 14 -9 23 -21 20 -26 -4 -6 -1 -10 5 -10 7 0 9 -7 6 -16 -3 -8 -2 -12 4
-9 6 3 10 -1 10 -9 0 -9 6 -13 14 -10 33 13 23 -18 -19 -61 -35 -35 -47 -42
-51 -30 -4 9 5 33 20 55 16 25 21 40 14 40 -22 0 -41 -17 -33 -30 8 -13 -29
-57 -60 -71 -15 -7 -11 -7 13 -3 20 3 39 1 48 -7 12 -10 17 -8 30 7 14 18 14
18 4 -4 -13 -27 -8 -37 14 -29 9 4 13 13 10 20 -3 8 2 21 10 29 20 21 48 88
34 85 -24 -5 -17 22 9 31 26 10 26 10 5 11 -19 1 -22 5 -17 24 6 21 5 21 -9 3
-9 -10 -13 -23 -10 -27 3 -5 0 -9 -5 -9 -6 0 -11 8 -11 19 0 10 -7 24 -15 31
-14 12 -14 15 1 31 20 23 16 24 -10 4z"/>
<path d="M1240 905 c-19 -22 -20 -55 -3 -55 20 0 5 -20 -15 -21 -9 0 -30 -16
-45 -35 -34 -40 -24 -45 16 -9 30 28 36 18 11 -20 -14 -21 -14 -29 -3 -62 14
-37 16 -46 18 -70 0 -7 7 -13 15 -13 27 0 46 -29 41 -63 -3 -18 -3 -26 1 -19
3 6 12 12 19 12 8 0 15 10 17 22 3 21 4 21 21 4 9 -10 17 -13 17 -8 0 16 31
23 45 12 7 -6 15 -7 18 -3 9 17 6 119 -4 133 -9 12 -10 12 -5 -4 4 -10 1 -26
-6 -34 -10 -12 -10 -14 0 -8 21 12 14 -21 -11 -50 -20 -23 -28 -26 -64 -20
-43 8 -86 44 -98 84 -8 26 3 29 21 5 12 -17 13 -17 20 0 10 27 -9 41 -35 28
-19 -11 -21 -9 -20 16 0 15 3 22 6 16 9 -24 23 -13 17 13 -5 19 -4 25 5 20 6
-4 11 -1 11 9 0 9 -4 13 -10 10 -21 -13 -9 23 13 38 31 20 84 31 91 18 4 -6
13 -8 21 -5 8 4 18 -1 21 -10 3 -9 10 -13 15 -10 13 7 40 -16 33 -27 -3 -5 7
-14 21 -21 25 -11 26 -15 22 -67 -6 -71 -5 -69 -21 -48 -13 16 -14 16 -18 -8
-4 -20 -3 -23 8 -14 10 8 14 8 14 0 0 -6 5 -11 11 -11 5 0 7 5 3 12 -4 7 -3 8
5 4 6 -4 9 -12 6 -17 -4 -5 -1 -9 6 -9 6 0 9 8 6 18 -12 42 -11 47 2 44 12 -3
12 -1 1 13 -10 12 -10 19 -2 27 8 8 8 17 1 30 -7 13 -7 23 0 32 6 7 10 15 8
17 -1 3 4 -1 12 -8 11 -9 20 -9 43 3 28 14 40 38 14 28 -7 -3 -30 4 -50 15
-20 12 -43 21 -51 21 -7 0 -27 11 -43 25 -17 14 -33 22 -35 17 -3 -4 10 -18
29 -31 18 -13 31 -28 27 -34 -3 -6 -1 -7 5 -3 11 7 38 -31 29 -41 -7 -6 -57
27 -57 38 0 5 -8 9 -18 9 -15 0 -46 34 -47 53 0 4 -3 7 -7 7 -30 0 -32 -2 -15
-14 25 -19 22 -21 -31 -23 -45 -1 -46 -1 -22 12 14 8 19 14 13 15 -7 0 -12 6
-10 12 3 19 -38 21 -53 3z m34 -17 c-10 -13 -20 -25 -22 -28 -2 -2 -7 2 -12
10 -9 15 14 39 39 40 11 0 9 -6 -5 -22z"/>
<path d="M1805 848 l5 -43 -21 40 c-15 30 -19 33 -15 13 3 -14 9 -33 12 -41 3
-10 -1 -17 -13 -20 -10 -2 -6 -3 9 -1 21 3 32 -4 49 -27 11 -17 24 -28 27 -25
3 3 -3 15 -13 26 -10 11 -21 38 -25 60 -6 35 -5 40 8 35 12 -4 13 -3 2 10 -22
26 -30 17 -25 -27z"/>
<path d="M1885 880 c-8 -12 20 -24 35 -15 6 3 8 11 5 16 -8 12 -32 12 -40 -1z"/>
<path d="M1707 839 c-9 -17 -26 -33 -37 -36 -20 -5 -29 -29 -27 -69 1 -16 6
-19 27 -16 l25 5 -24 -27 c-14 -14 -19 -26 -13 -26 6 0 18 10 26 23 16 24 56
177 47 177 -3 0 -14 -14 -24 -31z"/>
<path d="M2056 858 c4 -7 18 -27 30 -45 39 -52 26 -115 -18 -92 -11 6 -22 8
-25 6 -2 -3 5 -8 16 -12 12 -3 18 -11 15 -17 -4 -6 1 -8 16 -3 14 5 20 3 16
-3 -3 -6 -20 -13 -37 -17 -17 -4 -28 -9 -25 -13 3 -3 -2 -14 -11 -25 -18 -19
-18 -20 12 -4 30 15 85 67 71 67 -4 0 5 17 19 37 l25 37 -24 13 c-13 7 -34 29
-46 48 -20 32 -51 52 -34 23z"/>
<path d="M2730 830 c-7 -14 -7 -20 0 -20 5 0 10 -7 10 -15 0 -8 -5 -15 -10
-15 -6 0 -16 -12 -22 -26 -10 -22 -16 -25 -44 -19 -18 3 -35 1 -39 -5 -3 -5 0
-7 9 -4 8 3 23 1 33 -4 14 -8 25 -4 51 19 17 16 32 36 32 44 0 8 7 15 15 15 8
0 15 7 15 15 0 8 -5 15 -11 15 -5 0 -8 -4 -5 -8 3 -5 -1 -9 -9 -9 -7 0 -12 8
-10 19 5 24 -2 23 -15 -2z"/>
<path d="M114 795 c-9 -14 -14 -28 -10 -32 3 -3 6 -1 6 6 0 7 5 9 11 5 6 -3 9
-19 5 -35 -6 -31 13 -37 26 -9 12 26 9 62 -4 54 -8 -5 -9 -2 -5 9 10 28 -11
29 -29 2z"/>
<path d="M1030 810 c-12 -8 -9 -10 11 -10 15 0 32 -7 39 -15 9 -10 9 -15 1
-15 -6 0 -11 -5 -11 -11 0 -8 4 -8 14 0 11 9 18 6 35 -16 14 -18 18 -20 12 -7
-8 17 -76 84 -84 84 -1 0 -9 -5 -17 -10z"/>
<path d="M2247 799 c-15 -11 -25 -24 -22 -29 5 -8 -64 -75 -120 -118 -29 -22
-29 -23 -5 -17 26 7 142 119 137 134 -1 5 9 18 23 29 32 27 23 28 -13 1z"/>
<path d="M1390 794 c0 -16 -8 -23 -30 -27 -31 -7 -42 -27 -14 -27 8 0 12 -4 9
-10 -3 -5 3 -10 13 -10 26 0 48 51 33 77 -10 17 -10 17 -11 -3z"/>
<path d="M1931 784 c-7 -17 -17 -24 -26 -20 -42 17 -47 16 -19 -2 40 -26 64
-60 57 -81 -4 -9 -3 -13 1 -10 9 8 15 139 6 139 -4 0 -12 -12 -19 -26z"/>
<path d="M2344 777 c-26 -40 -41 -82 -25 -73 6 4 11 0 11 -8 0 -19 5 -20 31
-5 16 8 18 14 9 24 -8 9 -8 15 0 20 5 3 10 12 10 18 0 7 -7 3 -15 -7 -8 -10
-12 -23 -9 -27 3 -5 -2 -9 -10 -9 -19 0 -19 4 -4 33 25 48 29 59 26 62 -2 2
-13 -11 -24 -28z"/>
<path d="M2258 753 c-43 -45 -82 -103 -60 -89 5 3 13 -1 16 -10 4 -9 9 -14 13
-11 3 4 0 14 -7 22 -11 13 -10 19 5 33 17 15 17 15 6 0 -8 -11 -9 -18 -1 -23
5 -3 10 -1 10 5 0 6 4 9 8 6 4 -2 8 4 8 14 0 10 -4 16 -8 14 -20 -13 -4 14 29
48 20 21 35 38 32 38 -3 0 -25 -21 -51 -47z"/>
<path d="M2561 776 c-1 -16 -4 -17 -13 -8 -22 22 -28 12 -28 -51 0 -34 -4 -76
-9 -93 -8 -29 -7 -32 26 -43 19 -7 37 -10 40 -7 4 3 -2 6 -12 6 -13 0 -15 3
-7 13 6 6 12 25 14 41 1 16 9 32 17 34 10 3 13 -2 9 -22 -4 -20 -3 -25 5 -17
15 15 9 83 -9 96 -8 5 -18 24 -23 40 -6 20 -10 23 -10 11z m-1 -98 c0 -7 -9
-24 -20 -38 l-21 -25 7 30 c4 17 9 33 11 38 7 12 23 8 23 -5z"/>
<path d="M2836 772 c-4 -7 -1 -15 8 -18 9 -3 13 -10 10 -16 -3 -5 -11 -5 -19
2 -9 8 -15 8 -20 0 -4 -6 -12 -10 -18 -9 -17 3 -47 -12 -47 -23 0 -5 10 -6 23
-2 12 4 54 8 92 8 63 1 70 3 70 21 0 13 -7 20 -20 20 -11 0 -19 -6 -17 -12 4
-21 -11 -15 -34 14 -14 18 -23 23 -28 15z"/>
<path d="M963 753 c-3 -9 -14 -13 -25 -10 -19 5 -38 -24 -38 -59 0 -28 19 -13
23 19 4 28 5 30 11 10 7 -18 12 -20 32 -13 14 6 37 11 53 12 15 1 28 8 28 15
0 7 -4 13 -9 13 -4 0 -8 6 -8 13 0 17 -60 18 -67 0z"/>
<path d="M755 735 c11 -9 32 -21 47 -27 15 -5 34 -20 43 -34 20 -31 51 -34 35
-4 -14 26 -77 67 -115 75 -29 6 -29 6 -10 -10z"/>
<path d="M1152 695 c5 -43 -5 -69 -15 -43 -4 10 -6 10 -6 0 -1 -7 5 -20 13
-28 13 -12 15 -12 19 3 14 51 16 73 8 73 -5 0 -7 9 -4 20 3 12 0 20 -7 20 -9
0 -11 -13 -8 -45z"/>
<path d="M1818 696 c-20 -6 -43 -17 -50 -24 -6 -6 -19 -12 -27 -12 -13 0 -14
-2 -2 -9 8 -5 10 -14 6 -22 -4 -8 6 2 23 21 16 19 33 33 36 30 3 -3 -6 -19
-19 -34 -14 -16 -25 -31 -25 -33 0 -10 41 24 51 44 7 13 18 23 25 23 6 0 14 7
18 15 3 8 4 15 3 14 -1 -1 -19 -6 -39 -13z"/>
<path d="M1005 690 c-3 -6 -21 -8 -40 -6 -23 3 -35 0 -39 -10 -8 -21 4 -43 20
-37 8 3 11 9 8 14 -3 5 4 9 15 9 12 0 30 9 41 20 11 11 16 20 11 20 -6 0 -13
-5 -16 -10z"/>
<path d="M1704 665 c-8 -43 3 -155 17 -175 8 -11 9 -6 6 20 -3 19 -7 40 -9 45
-1 6 2 11 7 12 6 0 9 -2 8 -6 -1 -4 5 -8 12 -8 12 0 12 3 2 15 -10 13 -8 14
17 8 27 -7 28 -6 16 9 -10 12 -23 15 -43 11 l-30 -6 6 55 c6 62 1 73 -9 20z"/>
<path d="M1866 693 c-11 -11 -6 -22 13 -28 13 -4 17 -13 15 -33 -2 -15 -1 -19
2 -9 3 11 12 16 20 13 20 -8 17 18 -3 36 -26 22 -39 28 -47 21z"/>
<path d="M2678 687 c-21 -5 -38 -13 -38 -17 0 -5 12 -23 26 -40 15 -17 25 -32
23 -34 -43 -32 -71 -46 -81 -40 -7 4 -10 4 -6 -1 4 -4 0 -14 -10 -22 -10 -9
-11 -11 -2 -7 15 8 -43 -71 -60 -81 -4 -3 -16 -2 -25 1 -18 7 -17 35 3 42 7 2
10 -2 7 -10 -4 -9 0 -15 10 -15 8 0 13 3 10 5 -3 3 5 16 17 29 12 12 20 25 17
27 -4 4 -149 -31 -156 -38 -2 -2 3 -6 12 -10 9 -3 13 -2 10 4 -9 15 8 12 31
-4 17 -13 18 -18 7 -45 -6 -17 -8 -33 -3 -36 9 -6 118 64 144 93 25 29 35 28
87 -10 71 -51 207 -118 226 -111 38 13 41 21 27 72 -14 57 -31 91 -43 91 -5 0
-7 9 -4 19 6 25 -30 61 -61 61 -16 0 -26 -7 -29 -22 -7 -26 12 -47 61 -68 33
-15 41 -33 20 -46 -6 -4 -19 2 -29 14 -9 12 -21 22 -25 22 -4 0 -26 21 -50 46
-27 28 -48 43 -55 38 -9 -5 -10 -2 -6 11 4 9 3 23 -2 29 -5 6 -11 22 -13 36
-3 25 -5 25 -40 17z m71 -136 c16 -16 39 -31 52 -33 13 -1 28 -13 34 -25 13
-31 69 -60 87 -46 10 9 13 6 14 -13 2 -22 -10 -33 -18 -16 -1 4 -17 15 -35 24
-26 13 -32 14 -35 3 -2 -11 -13 -9 -50 7 -26 11 -45 24 -42 29 3 5 -3 9 -13 9
-18 1 -53 22 -53 33 0 3 8 8 18 10 9 2 4 3 -11 2 -35 -2 -45 12 -21 30 28 21
41 18 73 -14z"/>
<path d="M1064 682 c4 -7 1 -24 -9 -38 -9 -14 -14 -28 -11 -31 3 -3 11 6 17
21 11 24 21 30 41 27 4 0 4 7 1 16 -4 11 -8 13 -11 5 -3 -10 -7 -10 -20 0 -13
11 -14 11 -8 0z"/>
<path d="M1591 680 c-2 -27 11 -59 26 -64 7 -3 12 -2 8 3 -3 5 0 22 6 38 8 22
8 26 -2 16 -18 -18 -27 -16 -32 5 -3 12 -5 13 -6 2z"/>
<path d="M2402 674 c-9 -7 -13 -16 -9 -21 5 -4 16 1 24 12 14 18 15 18 9 1 -3
-10 -1 -25 5 -32 9 -12 9 -13 -4 -9 -11 5 -17 -2 -22 -25 -8 -37 9 -64 20 -31
3 11 3 26 -1 33 -5 9 -2 8 10 -1 9 -8 15 -19 12 -26 -2 -6 2 -12 10 -12 18 0
18 6 -2 52 -8 21 -14 46 -11 55 5 20 -16 22 -41 4z"/>
<path d="M340 654 c-8 -13 -10 -27 -7 -31 4 -3 7 -1 7 5 0 7 9 12 20 12 23 0
27 25 6 33 -8 3 -19 -5 -26 -19z"/>
<path d="M695 656 c-10 -14 -21 -23 -26 -20 -18 11 -9 -54 11 -77 10 -13 19
-20 20 -15 0 5 8 2 18 -6 9 -9 33 -18 52 -22 l35 -5 -35 11 c-19 7 -41 20 -48
30 -7 10 -17 16 -21 14 -15 -9 -28 29 -19 54 7 20 11 22 18 10 8 -13 10 -12
10 3 0 9 7 17 16 17 9 0 14 5 12 12 -8 22 -27 19 -43 -6z"/>
<path d="M30 656 c0 -7 17 -26 38 -41 20 -16 31 -22 25 -15 -7 8 -13 20 -13
28 0 14 -27 41 -42 42 -5 0 -8 -6 -8 -14z"/>
<path d="M1328 656 c-32 -11 -37 -26 -9 -26 17 0 49 27 40 33 -2 2 -16 -1 -31
-7z"/>
<path d="M1662 647 c-15 -16 -19 -30 -15 -46 5 -22 3 -23 -21 -19 -35 7 -42
-7 -21 -39 9 -14 13 -23 7 -19 -5 3 -16 -2 -23 -12 -13 -15 -12 -16 4 -3 24
19 22 -2 -3 -24 -11 -10 -20 -23 -20 -28 0 -6 9 -2 20 8 19 18 20 17 20 -2 0
-10 7 -28 16 -39 14 -18 15 -18 3 5 -7 14 -9 42 -5 71 5 35 3 50 -6 54 -7 3
-2 4 12 3 22 -2 25 3 30 40 4 23 12 48 19 57 20 24 7 19 -17 -7z"/>
<path d="M237 653 c-4 -3 -7 -15 -7 -27 0 -15 3 -17 12 -8 23 23 38 15 28 -14
-10 -25 -9 -26 14 -22 21 4 26 0 31 -23 7 -32 20 -38 29 -14 3 8 1 15 -4 15
-6 0 -10 11 -10 25 0 15 -5 24 -12 23 -7 -2 -13 4 -12 12 1 9 -9 16 -24 17
-13 0 -28 6 -31 12 -4 6 -10 8 -14 4z"/>
<path d="M1515 650 c-4 -6 -1 -17 5 -25 7 -8 9 -15 4 -15 -4 0 -3 -5 4 -12 18
-18 15 -46 -5 -50 -13 -3 -11 -5 7 -9 24 -5 26 -3 25 32 0 21 -9 46 -18 57 -9
10 -14 22 -10 25 3 4 4 7 0 7 -3 0 -9 -5 -12 -10z"/>
<path d="M885 620 c10 -11 26 -22 36 -25 11 -4 17 -10 14 -15 -5 -8 23 -25 37
-22 4 1 12 -13 16 -31 8 -27 11 -29 17 -13 10 22 -5 50 -30 54 -10 2 -33 19
-52 38 -35 36 -69 48 -38 14z"/>
<path d="M1190 634 c0 -6 7 -17 15 -24 8 -7 15 -21 15 -31 0 -12 -5 -16 -15
-13 -8 4 -15 12 -15 20 0 28 -19 13 -31 -23 -6 -21 -16 -41 -22 -44 -12 -8 -2
-39 13 -39 5 0 10 8 10 18 0 21 27 62 41 62 5 0 9 -10 10 -22 1 -15 4 -10 11
15 8 28 14 37 26 32 12 -4 13 -3 2 9 -6 9 -16 14 -20 13 -5 -1 -16 7 -24 18
-8 11 -16 15 -16 9z"/>
<path d="M177 613 c-13 -15 -13 -21 -3 -35 19 -25 29 -22 22 6 -4 18 -1 28 11
35 15 9 16 10 2 11 -9 0 -23 -8 -32 -17z"/>
<path d="M372 603 c2 -17 10 -29 21 -31 17 -4 18 -2 2 27 -19 38 -27 39 -23 4z"/>
<path d="M622 605 c-6 -14 -18 -25 -26 -25 -9 0 -12 -7 -9 -21 6 -20 6 -20 23
-2 16 16 36 73 27 73 -2 0 -9 -11 -15 -25z"/>
<path d="M746 613 c5 -19 42 -39 53 -28 2 3 -2 5 -10 5 -11 0 -12 2 -1 9 11 7
10 9 -3 14 -9 4 -13 3 -10 -3 11 -17 -7 -11 -21 8 -12 16 -13 15 -8 -5z"/>
<path d="M2033 611 c-23 -14 -33 -16 -37 -8 -2 7 -5 5 -5 -5 -2 -28 13 -28 49
3 41 33 38 37 -7 10z"/>
<path d="M1437 598 c-4 -14 -2 -16 13 -8 9 5 20 6 24 3 3 -3 6 1 6 10 0 22
-37 18 -43 -5z"/>
<path d="M2143 586 c-9 -20 -21 -36 -25 -36 -5 0 -2 -10 6 -22 9 -12 16 -35
16 -50 0 -36 15 -43 40 -18 11 11 20 17 20 13 1 -5 10 3 22 17 15 17 19 19 15
7 -4 -10 -7 -20 -7 -23 0 -7 -81 -45 -88 -40 -9 5 -7 -119 2 -162 4 -17 11
-32 15 -32 4 0 7 -10 8 -21 2 -28 64 -128 77 -126 6 1 12 -10 14 -25 2 -20 -2
-28 -18 -33 -12 -4 -19 -9 -16 -12 5 -6 94 25 114 40 19 15 14 30 -9 24 -14
-4 -19 -2 -15 8 5 14 -38 30 -54 20 -5 -3 -11 -2 -14 3 -3 5 0 9 7 10 7 0 22
3 35 6 15 3 26 -1 35 -15 15 -25 23 -24 23 2 0 15 -25 43 -77 86 -51 43 -76
70 -72 80 3 8 -4 21 -16 29 -12 9 -21 26 -21 40 l0 26 31 -26 c17 -14 35 -26
40 -26 5 0 9 -9 9 -20 0 -14 9 -21 38 -26 34 -6 82 -38 82 -55 0 -4 -6 -9 -12
-12 -7 -2 -5 -3 4 -2 10 2 23 -3 29 -11 16 -19 76 -12 92 10 11 15 13 14 15
-11 2 -31 11 -40 66 -73 37 -22 38 -22 27 -2 -6 11 -23 30 -38 42 -16 12 -33
31 -40 43 -15 27 -17 67 -2 67 5 0 7 -4 4 -10 -3 -5 0 -7 8 -4 8 3 17 -3 21
-13 7 -16 9 -15 21 7 20 35 18 42 -7 35 -21 -5 -21 -5 2 9 34 20 52 20 48 -1
-2 -12 3 -17 15 -15 9 2 17 -2 17 -8 0 -5 -4 -10 -10 -10 -16 0 -12 -30 5 -36
8 -4 15 -10 15 -15 0 -12 -47 -11 -72 2 -11 6 -22 8 -26 5 -3 -4 8 -12 25 -18
22 -8 31 -18 31 -35 0 -13 2 -27 6 -30 12 -12 44 29 57 71 11 37 15 42 36 38
24 -5 73 15 73 29 0 12 -57 28 -80 22 -19 -5 -20 -3 -14 51 4 36 3 56 -4 56
-12 0 -22 -24 -22 -55 0 -22 -2 -23 -30 -12 -16 6 -30 18 -30 27 0 22 -29 61
-41 55 -13 -9 -11 -36 6 -68 15 -30 15 -30 -35 -41 -17 -4 -30 -18 -41 -45
-11 -25 -29 -45 -49 -56 -31 -16 -34 -16 -42 0 -23 40 -74 87 -131 119 -35 19
-70 43 -80 54 -21 23 -13 32 46 57 42 17 45 32 23 107 -8 25 -11 50 -8 54 4 4
2 4 -4 1 -11 -6 -29 -80 -25 -104 3 -19 -17 -16 -41 7 l-21 19 24 20 c13 11
27 20 32 21 10 0 9 40 -2 40 -5 0 -16 3 -25 6 -11 4 -21 -5 -33 -30z m79 -349
c24 -19 34 -34 31 -45 -4 -9 -2 -13 4 -9 13 8 43 -1 43 -12 0 -7 -66 -31 -84
-31 -3 0 -6 7 -6 15 0 8 -6 15 -12 15 -9 0 -8 4 2 10 10 6 11 10 3 10 -7 0
-13 5 -13 11 0 7 10 9 28 5 25 -7 24 -5 -9 18 -20 14 -39 32 -43 41 -7 19 3
14 56 -28z"/>
<path d="M1015 584 c-10 -8 -13 -14 -7 -14 7 0 12 -14 12 -30 0 -28 2 -30 21
-20 27 15 29 11 19 -35 -6 -28 -5 -46 6 -66 23 -46 13 -101 -23 -122 -7 -5
-11 -12 -8 -17 3 -5 1 -11 -5 -15 -6 -4 -7 -11 -4 -17 5 -7 -4 -9 -25 -6 -18
3 -34 1 -37 -4 -3 -4 25 -8 62 -8 64 0 66 -1 51 -18 -23 -26 -21 -59 3 -67 11
-4 18 -11 15 -16 -4 -5 1 -19 9 -31 23 -32 21 -51 -3 -38 -11 5 -26 10 -33 10
-7 0 1 -8 19 -16 37 -19 34 -44 -6 -44 -25 1 -25 1 -7 15 23 18 4 20 -27 3
-21 -11 -21 -11 -2 -19 50 -19 65 -11 90 46 27 61 41 71 32 25 -4 -16 -3 -30
2 -30 11 0 21 25 21 51 0 10 5 19 11 19 5 0 7 4 4 10 -3 5 3 44 15 86 12 41
19 82 16 89 -2 7 2 16 10 19 8 3 14 12 14 21 0 8 4 15 8 15 4 0 7 -12 6 -27
-1 -29 42 -93 62 -93 6 0 19 -9 29 -20 10 -11 13 -20 7 -20 -7 0 -12 6 -13 13
0 6 -5 -2 -10 -19 -5 -18 -19 -36 -34 -42 -14 -6 -25 -16 -25 -22 0 -14 -43
-13 -59 3 -10 10 -12 9 -9 -3 4 -19 78 -32 96 -17 10 8 12 7 10 -2 -2 -8 5
-15 15 -16 16 -3 16 -2 -1 22 -18 25 -18 26 6 50 13 13 30 22 38 19 10 -4 11
0 2 20 -6 13 -9 26 -6 29 9 9 38 -7 38 -21 0 -8 7 -14 15 -14 22 0 18 -24 -6
-46 -12 -10 -28 -32 -36 -47 l-14 -28 36 7 c32 6 40 3 73 -31 29 -29 32 -36
16 -31 -15 4 -24 2 -27 -8 -5 -13 6 -15 67 -15 68 0 74 2 85 25 6 14 11 46 11
72 1 42 2 45 14 29 8 -10 17 -40 21 -67 l7 -49 46 26 c26 14 60 35 76 46 24
17 28 18 24 5 -4 -9 -4 -19 0 -23 4 -4 7 -10 7 -13 2 -37 54 -68 70 -42 4 6
11 8 16 5 5 -4 9 3 9 14 0 11 10 25 21 32 15 8 19 8 15 0 -4 -6 0 -11 8 -11
21 0 20 10 -8 43 l-23 29 -8 -24 c-4 -12 -8 -26 -10 -30 -1 -5 -3 -12 -4 -18
-2 -18 -27 -11 -55 15 -15 14 -24 30 -21 35 3 6 -1 10 -10 10 -9 0 -30 7 -47
16 -25 13 -29 20 -26 44 3 22 0 30 -14 33 -15 4 -17 11 -12 31 11 46 9 58 -11
70 -11 6 -23 16 -28 23 -11 17 -72 53 -91 53 -9 0 -16 -5 -16 -11 0 -5 5 -7
10 -4 6 4 10 -7 10 -24 0 -34 -2 -36 -30 -21 -15 8 -18 15 -10 34 5 13 6 27 3
30 -4 3 7 6 23 6 16 0 46 -11 67 -25 29 -21 37 -23 37 -10 0 9 -8 18 -17 21
-10 3 -26 10 -35 15 -10 5 -31 9 -47 9 -25 0 -33 -7 -51 -45 -16 -33 -19 -49
-11 -62 7 -12 10 -14 11 -4 0 11 10 12 46 7 25 -3 49 -8 53 -10 14 -9 -30
-216 -46 -216 -3 0 -13 10 -23 23 -10 13 -34 32 -54 42 -20 11 -36 25 -36 31
0 7 -5 14 -12 16 -7 3 -5 7 6 11 10 4 15 3 11 -3 -3 -6 -4 -10 -1 -10 9 0 48
82 42 88 -3 3 -6 0 -6 -8 0 -10 -3 -10 -15 0 -13 11 -14 10 -10 -2 8 -21 -21
-48 -51 -48 -14 0 -22 4 -19 10 8 13 -64 42 -88 34 -13 -4 -17 -2 -13 5 4 6 2
11 -3 11 -6 0 -11 9 -11 21 0 15 -5 19 -18 15 -29 -9 -22 41 8 64 14 11 20 20
13 20 -6 0 -15 -5 -18 -10 -4 -6 -21 -8 -42 -4 -23 4 -38 3 -43 -6 -6 -9 -12
-9 -29 1 -23 15 -26 31 -11 60 7 12 7 19 1 19 -6 0 -8 8 -4 18 3 9 -13 -2 -37
-25 -24 -24 -48 -43 -54 -43 -6 0 1 12 17 25 15 13 27 30 27 37 0 9 -3 9 -12
0 -7 -7 -21 -11 -32 -11 -16 1 -17 2 -5 6 18 4 55 116 44 133 -3 6 -18 9 -33
9 -17 -1 -21 -3 -9 -6 32 -8 19 -33 -18 -33 -36 0 -49 16 -17 22 14 3 15 5 2
10 -9 3 -24 0 -35 -8z m145 -211 c0 4 9 3 20 -3 11 -6 18 -15 15 -20 -3 -6 1
-7 11 -3 14 5 15 3 5 -15 -14 -27 -37 -42 -28 -18 4 11 3 15 -4 11 -6 -4 -8
-13 -5 -20 10 -26 -19 -22 -32 4 -11 24 -12 24 -7 -14 4 -25 2 -35 -3 -27 -7
11 -10 9 -15 -7 -5 -21 -40 -29 -63 -13 -17 11 -13 38 9 51 11 8 16 8 12 2
-12 -20 1 -11 26 16 13 15 16 21 7 14 -11 -8 -18 -9 -18 -3 0 6 5 14 11 18 6
3 9 15 6 25 -6 23 23 31 41 10 6 -8 12 -12 12 -8z m511 -65 c32 -36 22 -54
-11 -20 -16 18 -30 34 -30 37 0 13 24 3 41 -17z m-470 -87 c-12 -38 -21 -77
-21 -86 0 -12 -5 -15 -21 -10 -15 5 -19 4 -14 -5 5 -8 0 -11 -16 -8 -13 1 -25
9 -25 16 -1 6 -2 17 -3 22 0 6 -8 10 -16 10 -8 0 -15 6 -15 13 0 8 7 14 15 14
8 0 15 -6 15 -14 0 -7 5 -13 11 -13 7 0 9 -9 6 -22 -5 -19 -4 -21 6 -8 7 8 21
20 31 25 11 6 20 25 22 45 4 33 4 33 -16 15 -20 -18 -28 -41 -11 -30 5 3 12 1
15 -4 3 -5 -1 -12 -10 -15 -23 -9 -36 -7 -29 3 3 5 1 12 -5 16 -6 4 -8 11 -5
16 3 5 -2 6 -11 2 -12 -4 -15 -3 -10 5 4 7 14 12 22 12 8 0 13 4 9 9 -3 6 9
17 28 26 18 8 39 24 47 35 23 32 24 5 1 -69z m483 33 c9 -3 16 -13 16 -21 0
-18 34 -78 62 -109 17 -20 18 -21 1 -36 -40 -35 -92 -28 -63 7 10 12 10 15 0
15 -17 0 -49 41 -50 64 0 11 8 28 18 39 9 11 11 17 5 13 -9 -5 -13 0 -13 13 0
23 1 24 24 15z m-167 -126 c43 -23 67 -57 57 -83 -7 -18 7 -20 26 -3 8 7 6 3
-4 -9 -11 -13 -22 -23 -26 -23 -5 0 -31 21 -60 47 -39 35 -48 48 -38 55 8 6
-1 7 -25 3 -36 -6 -37 -5 -25 14 17 27 43 26 95 -1z"/>
<path d="M790 568 c-30 -9 -32 -11 -15 -18 12 -4 25 -2 33 7 8 7 18 11 23 8 5
-4 9 -1 9 4 0 13 -3 13 -50 -1z"/>
<path d="M1460 569 c0 -6 -7 -9 -15 -6 -21 9 -28 -8 -9 -24 13 -10 17 -10 25
2 9 15 12 39 4 39 -3 0 -5 -5 -5 -11z"/>
<path d="M1966 564 c-3 -8 -10 -13 -15 -9 -6 3 -15 -3 -20 -14 -11 -19 -21
-21 -53 -7 -31 14 -43 0 -13 -15 38 -18 59 -14 73 14 6 12 11 16 11 8 1 -11 6
-10 21 4 20 18 20 17 20 -10 0 -27 1 -27 13 -10 18 23 37 11 37 -23 0 -20 -3
-23 -12 -14 -7 7 -19 12 -27 12 -10 0 -8 -6 7 -19 27 -22 28 -32 5 -25 -11 3
-9 0 3 -7 12 -6 27 -22 33 -35 7 -16 19 -24 36 -24 14 0 25 4 25 10 0 5 -7 6
-17 3 -11 -4 -14 -3 -9 5 4 7 1 12 -8 12 -16 0 -34 27 -30 48 1 6 2 17 3 22 0
6 8 10 16 10 14 0 33 -52 27 -72 -1 -5 5 -8 13 -8 18 0 20 34 4 79 -7 20 -18
31 -31 31 -10 0 -17 4 -14 9 3 5 -10 8 -29 7 -26 -1 -37 3 -41 16 -7 22 -20
23 -28 2z"/>
<path d="M2498 568 c-3 -7 -14 -14 -26 -14 -37 -2 -40 -3 -45 -23 -4 -17 -1
-18 22 -10 37 13 91 58 69 59 -9 0 -18 -6 -20 -12z"/>
<path d="M2310 551 c0 -11 -5 -23 -11 -26 -7 -5 -6 -12 4 -23 8 -10 17 -24 21
-32 3 -8 4 0 1 17 -3 25 0 35 15 43 24 13 24 13 5 -39 l-14 -41 37 -36 c20
-20 36 -41 34 -46 -1 -6 5 -16 14 -23 10 -7 15 -19 11 -29 -7 -19 -32 -21 -43
-4 -4 7 -3 8 4 4 7 -4 12 -3 12 3 0 5 -13 18 -30 28 -17 10 -30 26 -31 38 0
11 -3 14 -6 7 -2 -6 -10 -9 -16 -6 -7 4 4 -10 23 -30 29 -31 32 -38 20 -46
-12 -8 -12 -10 -1 -10 8 0 20 -8 28 -17 8 -10 12 -12 8 -5 -4 7 0 12 10 12 11
0 15 -5 11 -15 -15 -38 -16 -48 -1 -22 8 15 22 27 30 27 18 0 18 0 0 38 -9 17
-18 41 -20 53 -3 12 -14 32 -26 45 -22 23 -25 46 -13 102 6 28 4 32 -16 32
-12 0 -30 5 -41 10 -16 9 -19 7 -19 -9z"/>
<path d="M70 540 c0 -8 -8 -10 -27 -5 -23 5 -25 4 -14 -9 8 -9 18 -16 24 -16
6 0 18 -7 28 -16 14 -12 22 -13 38 -4 21 11 20 30 -1 30 -6 0 -20 7 -30 17
-12 11 -18 12 -18 3z"/>
<path d="M604 522 l-17 -27 22 19 c30 27 51 29 51 5 0 -13 7 -19 23 -19 14 0
24 6 24 15 0 8 -4 12 -9 9 -5 -3 -16 0 -24 7 -28 23 -51 20 -70 -9z"/>
<path d="M873 538 c-6 -7 -13 -21 -16 -31 -4 -10 -11 -16 -16 -13 -5 3 -15 -2
-22 -11 -11 -13 -11 -15 -1 -9 11 7 12 -2 8 -40 l-5 -49 10 43 c6 23 14 40 19
37 5 -3 14 10 21 29 7 19 16 33 21 30 4 -3 5 2 2 10 -7 19 -9 19 -21 4z"/>
<path d="M1365 538 c-16 -5 -41 -13 -55 -17 -14 -3 -25 -13 -25 -21 0 -8 -8
-18 -17 -22 -14 -6 -16 -13 -9 -30 4 -13 15 -23 22 -23 8 -1 13 -6 12 -13 -4
-15 -1 -15 32 -2 17 7 24 7 20 0 -3 -6 -2 -10 4 -10 12 0 41 -52 41 -72 0 -10
-2 -10 -9 1 -6 9 -10 2 -13 -23 -2 -20 -3 -36 -2 -36 1 0 12 15 23 34 23 37
28 91 9 102 -8 5 -9 2 -5 -9 3 -10 2 -17 -3 -17 -6 0 -11 3 -11 8 -7 43 -6 62
1 62 4 0 10 -3 13 -7 2 -5 2 -2 1 4 -4 17 42 47 60 40 8 -3 20 2 28 11 11 15
11 15 -2 6 -20 -16 -60 0 -67 26 -6 22 -5 22 -48 8z m45 -36 c0 -11 -39 -47
-69 -62 -19 -10 -25 -9 -31 0 -5 7 -15 10 -24 7 -10 -4 -16 -1 -16 7 0 17 25
27 45 20 18 -7 65 3 64 14 -3 16 2 22 16 22 8 0 15 -4 15 -8z"/>
<path d="M1661 530 c0 -14 6 -36 13 -49 13 -24 14 -24 21 18 4 23 4 45 1 48
-3 4 -6 -7 -6 -23 l-1 -29 -14 30 c-13 29 -13 29 -14 5z"/>
<path d="M215 500 c-3 -5 -1 -12 5 -15 8 -5 7 -11 -1 -21 -9 -11 -9 -17 0 -28
8 -10 9 -16 1 -21 -5 -3 -10 -11 -10 -17 0 -6 9 -3 20 7 14 13 17 22 10 30 -6
7 -8 19 -4 28 6 17 64 42 64 28 0 -5 6 -9 13 -8 49 2 53 -2 49 -43 l-4 -39 35
1 c20 1 36 4 35 7 -2 19 3 31 12 26 5 -3 6 -13 3 -23 -6 -15 -5 -15 10 -3 11
9 17 10 17 2 0 -6 11 -11 25 -11 14 0 25 5 25 10 0 6 -4 10 -10 10 -5 0 -10 9
-10 21 0 18 2 19 15 5 8 -8 15 -22 15 -30 0 -22 17 -20 23 2 4 16 5 16 6 0 2
-27 31 -22 32 5 1 21 1 21 7 2 5 -15 16 -21 43 -22 35 -1 35 0 36 38 1 30 -2
37 -11 30 -9 -7 -16 -7 -25 2 -9 9 -14 9 -20 -2 -7 -11 -9 -11 -14 0 -4 11 -6
11 -6 1 -1 -7 -5 -10 -11 -7 -6 4 -11 -8 -11 -27 l-2 -33 -6 35 c-5 24 -11 34
-21 31 -17 -4 -39 -4 -59 1 -8 2 -17 -8 -21 -22 -3 -15 -9 -20 -13 -13 -4 6
-4 19 0 30 6 17 5 17 -16 -1 -22 -20 -22 -20 -15 0 7 17 6 18 -10 4 -16 -13
-20 -12 -32 5 -8 10 -14 22 -14 27 0 11 -149 8 -155 -2z m455 -65 c0 -2 -9 -9
-20 -15 -18 -9 -20 -8 -20 15 0 23 2 24 20 15 11 -6 20 -13 20 -15z"/>
<path d="M1765 501 c-3 -5 -2 -17 1 -26 7 -17 45 -17 51 1 4 13 -44 37 -52 25z"/>
<path d="M1934 495 c-4 -9 -4 -19 0 -22 3 -4 6 0 6 8 0 8 16 -11 35 -41 19
-30 34 -62 34 -70 0 -9 -6 -5 -14 10 l-14 25 0 -30 c-1 -16 3 -37 9 -45 7 -12
10 -12 16 4 7 18 8 18 21 0 7 -10 13 -15 13 -11 0 17 -36 95 -57 123 -13 17
-23 36 -23 42 0 19 -20 24 -26 7z"/>
<path d="M1860 489 c0 -5 5 -7 11 -3 7 4 10 1 7 -6 -8 -25 -57 -53 -93 -54
-30 -1 -33 -3 -19 -13 9 -6 13 -16 10 -21 -3 -5 0 -14 7 -20 10 -8 13 -5 12
16 0 19 6 28 20 30 11 2 27 10 36 18 14 13 17 10 28 -26 14 -47 26 -51 34 -12
3 15 9 36 13 47 4 12 3 17 -2 12 -5 -5 -14 -23 -21 -40 -10 -28 -12 -29 -13
-9 -2 12 -3 28 -4 35 -1 6 1 19 6 29 5 11 3 18 -8 22 -21 8 -24 8 -24 -5z"/>
<path d="M715 480 c3 -5 13 -10 21 -10 8 0 14 -9 14 -19 0 -18 19 -32 43 -30
7 0 2 4 -10 9 -13 5 -23 14 -23 20 0 6 5 8 10 5 6 -3 10 -4 10 -1 0 6 -55 36
-65 36 -3 0 -3 -4 0 -10z"/>
<path d="M888 473 c-23 -29 -50 -74 -45 -79 2 -2 18 18 35 46 32 52 36 63 10
33z"/>
<path d="M918 470 c-17 -10 -44 -77 -35 -86 3 -3 8 5 12 18 17 56 55 72 95 40
18 -15 21 -24 15 -55 -5 -25 -13 -37 -24 -37 -9 0 -25 -15 -35 -32 -9 -18 -11
-26 -4 -17 7 9 24 19 37 24 22 7 23 5 19 -29 -2 -20 0 -35 5 -33 5 1 11 41 13
89 5 84 5 86 -22 107 -29 23 -50 26 -76 11z"/>
<path d="M1640 472 c0 -10 20 -34 41 -50 14 -11 17 -10 15 4 0 9 5 19 13 22
10 3 12 0 8 -12 -4 -9 -2 -26 2 -38 9 -21 9 3 2 66 -1 5 -10 1 -20 -8 -18 -17
-20 -17 -40 3 -12 12 -21 17 -21 13z"/>
<path d="M2286 468 c-8 -26 -3 -48 9 -38 7 6 15 6 22 -1 6 -6 10 -5 10 6 0 8
-6 15 -13 15 -7 0 -16 5 -20 12 -4 7 -3 8 4 4 7 -4 12 -2 12 3 0 15 -20 14
-24 -1z"/>
<path d="M255 435 c0 -44 15 -46 16 -2 l2 32 7 -35 c4 -21 8 -27 9 -15 2 20 2
20 11 0 5 -12 9 -15 9 -5 1 11 4 11 13 2 16 -16 33 -15 19 1 -7 10 -7 17 0 24
6 6 8 16 5 22 -10 16 -26 13 -20 -3 3 -8 1 -17 -5 -21 -7 -3 -11 2 -11 14 0
16 -6 21 -27 21 -25 0 -28 -3 -28 -35z"/>
<path d="M1434 423 c-13 -61 -12 -75 2 -69 7 3 15 0 18 -7 3 -9 5 -9 5 0 1 7
8 10 16 7 12 -5 11 -11 -7 -35 -18 -24 -19 -32 -9 -51 6 -13 9 -15 7 -6 -3 10
-1 28 4 40 l9 23 0 -22 c1 -13 5 -23 10 -23 4 0 6 10 4 23 -3 13 11 50 32 90
34 63 35 67 13 56 -13 -7 -27 -12 -31 -11 -5 1 -6 -2 -3 -7 4 -5 1 -13 -5 -16
-6 -4 -8 -17 -5 -30 5 -20 2 -22 -25 -20 -27 2 -55 15 -33 15 5 0 10 18 11 40
2 50 -2 51 -13 3z"/>
<path d="M2230 413 c0 -6 -3 -20 -7 -30 -6 -15 -4 -16 8 -6 12 10 17 8 27 -8
7 -10 20 -19 30 -18 14 0 14 2 -4 10 -11 6 -28 22 -37 37 -9 15 -17 22 -17 15z"/>
<path d="M696 385 c-3 -10 3 -17 19 -21 l25 -6 -20 -25 c-11 -14 -20 -32 -20
-39 0 -8 -10 -15 -22 -15 -18 -1 -19 -2 -5 -6 10 -3 23 0 30 5 7 5 27 9 45 7
29 -2 31 -1 15 10 -10 7 -20 12 -24 10 -3 -2 -6 2 -6 10 0 21 9 19 56 -16 24
-17 44 -29 45 -27 14 17 22 44 18 63 -4 21 -6 22 -30 9 -51 -26 -92 -9 -50 20
27 19 21 26 -30 31 -29 3 -42 0 -46 -10z"/>
<path d="M2440 378 c0 -14 9 -33 19 -42 19 -17 19 -16 7 18 -16 46 -26 56 -26
24z"/>
<path d="M339 364 c11 -15 18 -30 15 -35 -2 -5 3 -20 12 -35 14 -21 23 -25 46
-20 20 4 27 2 22 -6 -4 -6 -3 -8 4 -4 6 3 20 -6 31 -20 23 -29 27 -25 9 9 -10
20 -10 21 5 8 10 -7 17 -23 18 -35 0 -20 1 -20 9 -1 4 11 4 24 -1 30 -13 13
-11 25 5 25 8 0 13 -8 12 -17 -1 -12 12 -21 43 -30 24 -7 53 -20 63 -30 26
-24 78 -26 78 -4 0 9 5 22 11 28 9 9 5 14 -15 19 -20 5 -31 2 -41 -12 -11 -15
-15 -16 -16 -4 -1 8 -1 18 0 22 0 4 -6 5 -14 2 -8 -4 -15 -1 -15 5 0 7 7 14
15 17 17 7 20 34 4 34 -6 0 -13 -9 -16 -20 -8 -31 -28 -23 -25 10 1 10 -60 11
-72 2 -18 -15 -86 -24 -86 -13 0 6 -7 8 -16 4 -10 -4 -15 -1 -14 8 5 32 0 41
-20 36 -11 -3 -21 -1 -21 4 -1 5 -2 14 -3 20 0 7 -11 16 -24 20 l-23 9 20 -26z"/>
<path d="M424 357 c3 -10 6 -21 6 -23 0 -2 9 -4 20 -4 11 0 23 -7 26 -15 7
-18 35 -20 32 -2 -2 8 10 12 36 11 33 -1 36 1 22 12 -10 7 -41 11 -72 10 -41
-2 -58 2 -65 13 -9 14 -10 13 -5 -2z"/>
<path d="M1726 343 c8 -30 23 -45 37 -36 14 9 27 -18 27 -59 0 -27 4 -38 15
-38 8 0 15 -4 15 -10 0 -5 9 -14 20 -20 18 -9 20 -8 20 15 0 17 -5 25 -18 25
-19 0 -42 18 -42 33 0 5 7 4 15 -3 17 -15 19 -7 5 21 -6 10 -7 19 -2 19 5 0
14 -11 20 -25 6 -14 16 -25 22 -25 5 0 10 -6 10 -14 0 -8 9 -21 20 -29 11 -8
18 -16 15 -18 -2 -3 6 -6 18 -6 19 -2 20 -1 5 8 -10 6 -18 18 -18 28 0 9 -13
30 -30 46 -33 32 -38 47 -14 43 10 -2 20 7 25 20 7 19 4 24 -17 32 -33 13 -57
13 -49 0 3 -6 3 -19 0 -30 -6 -19 -8 -19 -31 -3 -14 8 -22 18 -19 21 9 9 -17
32 -36 32 -16 0 -18 -5 -13 -27z"/>
<path d="M1900 315 c-11 -34 -10 -39 13 -63 13 -15 22 -33 20 -39 -2 -7 2 -22
11 -35 10 -14 12 -26 6 -33 -7 -8 0 -21 20 -40 17 -16 30 -35 30 -42 0 -8 4
-12 8 -9 4 2 14 1 22 -4 8 -5 27 -3 48 6 19 8 40 14 46 13 6 0 -11 -9 -39 -20
-68 -28 -81 -43 -20 -24 63 19 120 30 90 16 -18 -8 -18 -10 -3 -16 9 -4 22 -4
28 0 6 4 9 3 8 -2 -2 -4 2 -9 7 -10 19 -3 3 32 -28 64 l-32 33 -38 -20 c-47
-26 -53 -25 -82 6 -22 24 -44 78 -59 147 -4 15 -15 35 -26 45 -11 9 -20 23
-20 31 0 10 7 8 24 -8 15 -14 26 -19 31 -12 3 6 -1 11 -9 11 -8 0 -21 9 -29
21 -15 20 -15 19 -27 -16z"/>
<path d="M2040 299 c0 -6 -7 -9 -15 -5 -9 3 -15 0 -15 -10 0 -8 10 -19 23 -24
l22 -9 -24 0 c-14 -1 -34 7 -45 17 -21 17 -21 17 -2 -5 11 -13 30 -23 43 -23
23 0 63 -31 63 -50 0 -5 -6 -10 -12 -10 -7 0 -24 -3 -37 -7 -20 -5 -22 -3 -17
13 3 10 1 26 -4 34 -9 13 -10 13 -11 0 -1 -8 0 -21 1 -29 1 -8 -4 -17 -10 -21
-6 -4 17 -10 52 -14 43 -5 71 -14 88 -29 l25 -22 -26 30 c-34 40 -80 121 -72
128 3 4 -1 9 -10 13 -9 3 -13 12 -10 20 3 8 2 14 -1 14 -3 0 -6 -5 -6 -11z"/>
<path d="M1600 229 c1 -35 1 -80 0 -99 l-1 -35 -24 45 c-21 40 -24 42 -25 19
0 -27 44 -78 57 -65 12 12 15 184 3 191 -8 5 -11 -12 -10 -56z"/>
<path d="M860 260 c6 -11 7 -21 3 -21 -4 -1 -21 -3 -37 -5 -16 -2 -35 -5 -42
-8 -7 -3 -15 2 -18 10 -3 9 -11 12 -17 8 -23 -14 17 -29 74 -29 30 1 53 -3 51
-7 -3 -4 7 -10 21 -14 21 -5 25 -13 27 -43 1 -35 1 -35 5 -5 4 31 5 31 33 21
l30 -11 -22 -23 c-19 -21 -20 -23 -4 -23 10 0 20 9 23 20 3 11 14 20 24 20 25
0 15 -23 -17 -40 -13 -7 -24 -19 -24 -27 0 -16 10 -16 44 -3 30 11 32 8 10
-14 -8 -9 -11 -16 -6 -16 21 0 34 28 23 49 -17 31 -14 43 8 31 24 -12 31 -13
31 -2 0 4 -17 14 -37 21 -86 29 -95 34 -81 43 10 7 8 8 -4 4 -24 -7 -49 3 -41
18 4 6 -1 5 -10 -2 -15 -12 -16 -11 -13 16 3 24 -1 32 -20 41 -23 10 -24 9
-14 -9z"/>
<path d="M70 220 c18 -15 38 -19 72 -17 27 1 48 6 48 11 0 5 -14 6 -30 2 -17
-3 -49 1 -73 9 l-42 14 25 -19z"/>
<path d="M520 214 c4 -33 1 -42 -25 -72 -26 -31 -18 -56 14 -44 14 5 14 3 3
-11 -13 -15 -16 -15 -37 -1 -17 11 -24 12 -27 3 -6 -17 -48 -22 -48 -6 0 7 13
23 30 35 16 12 35 32 41 45 6 13 -1 7 -19 -13 -27 -32 -31 -33 -56 -22 -14 6
-26 20 -27 29 0 11 -3 13 -6 6 -2 -7 -11 -13 -18 -13 -8 0 -19 -8 -24 -19 -8
-14 -6 -23 12 -37 21 -19 21 -19 7 0 -14 18 -14 18 7 6 12 -8 21 -16 21 -19
-2 -21 4 -31 13 -26 5 4 37 7 70 7 32 1 59 5 59 10 0 4 10 13 23 19 15 7 23
20 24 37 1 22 0 23 -6 8 -12 -32 -24 -1 -16 43 4 25 2 41 -5 46 -7 5 -11 0
-10 -11z"/>
<path d="M1278 202 c2 -18 -2 -35 -12 -45 -10 -10 -12 -18 -6 -22 6 -3 13 1
16 9 3 9 11 13 17 9 6 -4 8 2 4 18 -4 13 -7 32 -7 42 0 9 -4 17 -8 17 -5 0 -7
-13 -4 -28z"/>
<path d="M2294 205 c11 -8 28 -15 37 -15 10 0 21 -5 25 -12 5 -8 1 -9 -12 -4
-22 8 -18 5 47 -48 40 -31 50 -35 72 -27 17 7 28 7 32 1 4 -6 16 -9 28 -9 16
1 18 2 5 6 -9 2 -20 13 -24 25 -3 12 -10 16 -15 11 -5 -5 -23 -8 -39 -5 -22 3
-30 10 -30 24 0 11 -8 22 -20 25 -11 3 -20 9 -20 14 0 5 -11 9 -24 9 -14 0
-37 5 -53 10 -26 9 -27 9 -9 -5z"/>
<path d="M35 190 c-12 -19 16 -31 56 -25 41 6 53 -8 58 -65 1 -10 6 -7 17 8
12 17 13 26 4 37 -8 10 -8 15 2 21 9 6 -1 11 -27 16 -22 4 -54 11 -71 14 -20
4 -34 2 -39 -6z"/>
<path d="M846 169 c-9 -14 -22 -20 -34 -17 -23 6 -52 -8 -52 -26 0 -8 -16 -26
-36 -41 -19 -15 -33 -30 -30 -33 3 -3 14 2 25 12 10 9 45 27 77 39 51 20 59
27 65 55 8 38 5 39 -15 11z"/>
<path d="M693 155 c-23 -16 -29 -25 -21 -33 20 -20 -10 -40 -69 -48 -42 -5
-52 -9 -39 -16 9 -5 13 -14 9 -21 -13 -21 -11 -33 7 -34 12 -1 16 4 13 16 -4
15 0 18 24 14 22 -4 25 -2 13 7 -13 9 -12 11 5 8 10 -2 22 -14 26 -28 5 -17 7
-19 8 -7 1 14 5 16 20 8 10 -6 20 -9 22 -7 2 2 20 6 39 10 32 6 33 6 15 -9
-20 -16 -20 -16 0 -6 11 5 34 7 50 5 28 -3 29 -3 5 5 -19 8 -13 9 28 7 49 -3
54 -1 67 25 10 18 11 30 5 34 -6 3 -10 0 -10 -8 0 -23 -48 -36 -142 -39 -110
-3 -128 9 -87 53 16 17 29 35 29 39 0 5 9 12 20 15 11 3 20 10 20 15 0 18 -27
16 -57 -5z"/>
<path d="M1871 155 c0 -5 4 -19 9 -30 9 -20 9 -20 10 0 1 16 4 14 15 -10 12
-25 14 -26 9 -5 -4 14 -10 32 -15 40 -7 13 -8 13 -9 0 0 -13 -1 -13 -10 0 -5
8 -9 11 -9 5z"/>
<path d="M105 118 c4 -18 12 -39 17 -45 8 -10 -1 -13 -40 -13 -31 0 -52 5 -55
13 -4 9 -6 9 -6 -1 -1 -7 -5 -10 -11 -7 -14 9 -13 -18 2 -33 7 -7 17 -8 29 -1
15 7 17 6 14 -11 -3 -14 2 -20 16 -20 12 0 19 7 19 20 0 16 7 20 34 20 19 0
46 -4 60 -10 19 -7 26 -6 26 3 1 8 5 6 13 -4 7 -9 17 -14 24 -12 7 2 21 -1 33
-7 16 -9 25 -8 35 0 8 6 22 10 32 9 10 -1 29 3 43 9 22 10 21 11 -15 6 -22 -3
-48 -8 -59 -11 -12 -3 -16 -1 -12 6 4 6 16 11 26 11 10 0 21 4 24 8 2 4 -7 8
-22 7 -19 0 -28 6 -33 25 -4 14 -7 18 -8 9 -1 -11 -17 -21 -47 -28 -40 -10
-48 -10 -59 5 -7 10 -19 15 -28 11 -9 -3 -16 -3 -15 1 1 4 -2 16 -6 27 -5 11
-10 26 -12 33 -2 6 -8 12 -14 12 -8 0 -9 -11 -5 -32z"/>
<path d="M2943 116 c-29 -16 -55 -22 -83 -20 -22 1 -40 -2 -40 -7 0 -5 25 -9
55 -9 30 0 55 5 55 10 0 6 16 10 35 10 28 0 35 4 35 20 0 25 -5 25 -57 -4z"/>
<path d="M2353 110 c1 -11 5 -20 10 -20 4 0 6 -4 3 -9 -3 -5 1 -12 10 -15 11
-4 14 -14 11 -29 -6 -21 -6 -21 8 -3 15 20 15 20 30 0 8 -10 15 -22 15 -27 0
-4 9 -2 20 5 17 11 22 10 29 0 5 -8 19 -12 32 -10 23 4 23 5 4 12 -50 20 -90
44 -130 79 -37 32 -44 35 -42 17z"/>
<path d="M2573 84 c13 -7 36 -29 51 -48 26 -35 58 -46 71 -26 3 5 0 7 -7 5 -8
-3 -31 10 -52 30 -33 30 -36 35 -17 35 11 0 21 4 21 9 0 5 -21 9 -46 8 -43 -1
-44 -1 -21 -13z"/>
<path d="M2650 89 c0 -5 17 -9 37 -9 20 0 33 3 29 7 -11 11 -66 12 -66 2z"/>
<path d="M2730 88 c0 -5 18 -8 40 -8 22 0 40 4 40 9 0 5 -18 8 -40 7 -22 0
-40 -4 -40 -8z"/>
<path d="M1228 81 c8 -4 12 -12 10 -17 -1 -5 11 -11 27 -15 l30 -6 -25 -11
c-14 -6 -38 -15 -55 -21 -27 -8 -24 -9 28 -10 40 -1 56 3 55 11 -2 7 7 14 20
16 13 2 26 10 29 18 3 8 8 12 12 10 4 -3 13 -1 20 4 9 5 -8 8 -41 9 -30 0 -67
5 -82 11 -33 12 -46 13 -28 1z"/>
<path d="M2542 54 c18 -19 32 -25 45 -20 15 7 13 10 -17 26 -49 27 -59 24 -28
-6z"/>
<path d="M1773 43 c-24 -14 -43 -29 -43 -34 0 -14 38 -11 69 6 16 8 32 11 37
7 5 -4 3 0 -2 8 -6 8 -13 20 -15 27 -3 7 -18 3 -46 -14z"/>
<path d="M497 33 c-37 -23 -48 -20 -24 7 6 8 0 4 -15 -9 -16 -14 -28 -25 -28
-26 0 -9 57 0 65 11 5 7 23 15 39 18 36 6 42 12 19 18 -10 3 -35 -6 -56 -19z"/>
<path d="M2820 25 l-34 -25 61 0 c34 0 65 5 68 11 11 17 -1 21 -39 11 -37 -11
-45 -5 -24 16 19 19 6 13 -32 -13z"/>
<path d="M1360 30 c0 -6 -10 -15 -22 -20 -20 -8 -18 -9 15 -9 31 -1 37 2 37
19 0 11 -7 20 -15 20 -8 0 -15 -5 -15 -10z"/>
</g>
</svg>
